STARTFONT 2.1
FONT --mono_size_09_07_design_1-Normal-R-Normal--12-120-72-72-P-0--
SIZE 12 72 72
FONTBOUNDINGBOX 10 11 0 -2
STARTPROPERTIES 21
BREAK_CHAR 32
CAP_HEIGHT 9
CODEPAGE "MS Windows 1252 Western (ANSI)"
CREATION_YEAR 2026
DEFAULT_CHAR -1
ENC_MODE 2
FAMILY_NAME "mono_size_09_07_design_1"
FONTNAME_REGISTRY "-"
FONT_ASCENT 9
FONT_DESCENT 3
HI_VERSION 1
PIXEL_SIZE 12
POINT_SIZE 120
RESOLUTION_X 72
RESOLUTION_Y 72
SETWIDTH_NAME "Normal"
SLANT "R"
SPACING "P"
WEIGHT 400
WEIGHT_NAME "Normal"
X_HEIGHT 7
ENDPROPERTIES
CHARS 150
STARTCHAR .uni0020
ENCODING 32
SWIDTH 500 0
DWIDTH 6 0
BBX 0 0 0 0
BITMAP
ENDCHAR
STARTCHAR .uni0021
ENCODING 33
SWIDTH 500 0
DWIDTH 6 0
BBX 1 9 2 0
BITMAP
80
80
80
80
80
80
80
00
80
ENDCHAR
STARTCHAR .uni0022
ENCODING 34
SWIDTH 500 0
DWIDTH 6 0
BBX 3 3 1 6
BITMAP
A0
A0
A0
ENDCHAR
STARTCHAR .uni0023
ENCODING 35
SWIDTH 500 0
DWIDTH 6 0
BBX 5 5 0 2
BITMAP
50
F8
50
F8
50
ENDCHAR
STARTCHAR .uni0024
ENCODING 36
SWIDTH 500 0
DWIDTH 6 0
BBX 5 9 0 0
BITMAP
20
70
A8
A0
70
28
A8
70
20
ENDCHAR
STARTCHAR .uni0025
ENCODING 37
SWIDTH 500 0
DWIDTH 6 0
BBX 5 5 0 2
BITMAP
88
10
20
40
88
ENDCHAR
STARTCHAR .uni0026
ENCODING 38
SWIDTH 500 0
DWIDTH 6 0
BBX 5 9 0 0
BITMAP
60
90
90
80
40
80
A8
90
68
ENDCHAR
STARTCHAR .uni0027
ENCODING 39
SWIDTH 500 0
DWIDTH 6 0
BBX 1 3 2 6
BITMAP
80
80
80
ENDCHAR
STARTCHAR .uni0028
ENCODING 40
SWIDTH 500 0
DWIDTH 6 0
BBX 3 11 1 -2
BITMAP
20
40
80
80
80
80
80
80
80
40
20
ENDCHAR
STARTCHAR .uni0029
ENCODING 41
SWIDTH 500 0
DWIDTH 6 0
BBX 3 11 1 -2
BITMAP
80
40
20
20
20
20
20
20
20
40
80
ENDCHAR
STARTCHAR .uni002A
ENCODING 42
SWIDTH 500 0
DWIDTH 6 0
BBX 5 5 0 2
BITMAP
20
A8
70
A8
20
ENDCHAR
STARTCHAR .uni002B
ENCODING 43
SWIDTH 500 0
DWIDTH 6 0
BBX 5 5 0 2
BITMAP
20
20
F8
20
20
ENDCHAR
STARTCHAR .uni002C
ENCODING 44
SWIDTH 500 0
DWIDTH 6 0
BBX 3 3 1 -2
BITMAP
20
40
80
ENDCHAR
STARTCHAR .uni002D
ENCODING 45
SWIDTH 500 0
DWIDTH 6 0
BBX 5 1 0 4
BITMAP
F8
ENDCHAR
STARTCHAR .uni002E
ENCODING 46
SWIDTH 500 0
DWIDTH 6 0
BBX 1 1 2 0
BITMAP
80
ENDCHAR
STARTCHAR .uni002F
ENCODING 47
SWIDTH 500 0
DWIDTH 6 0
BBX 5 5 0 2
BITMAP
08
10
20
40
80
ENDCHAR
STARTCHAR .uni0030
ENCODING 48
SWIDTH 500 0
DWIDTH 6 0
BBX 5 9 0 0
BITMAP
70
88
88
98
A8
C8
88
88
70
ENDCHAR
STARTCHAR .uni0031
ENCODING 49
SWIDTH 500 0
DWIDTH 6 0
BBX 5 9 0 0
BITMAP
20
60
A0
20
20
20
20
20
F8
ENDCHAR
STARTCHAR .uni0032
ENCODING 50
SWIDTH 500 0
DWIDTH 6 0
BBX 5 9 0 0
BITMAP
70
88
08
10
20
40
80
80
F8
ENDCHAR
STARTCHAR .uni0033
ENCODING 51
SWIDTH 500 0
DWIDTH 6 0
BBX 5 9 0 0
BITMAP
70
88
08
08
30
08
08
88
70
ENDCHAR
STARTCHAR .uni0034
ENCODING 52
SWIDTH 500 0
DWIDTH 6 0
BBX 5 9 0 0
BITMAP
10
30
50
90
F8
10
10
10
10
ENDCHAR
STARTCHAR .uni0035
ENCODING 53
SWIDTH 500 0
DWIDTH 6 0
BBX 5 9 0 0
BITMAP
F8
80
80
80
F0
08
08
88
70
ENDCHAR
STARTCHAR .uni0036
ENCODING 54
SWIDTH 500 0
DWIDTH 6 0
BBX 5 9 0 0
BITMAP
70
88
80
80
F0
88
88
88
70
ENDCHAR
STARTCHAR .uni0037
ENCODING 55
SWIDTH 500 0
DWIDTH 6 0
BBX 5 9 0 0
BITMAP
F8
08
08
10
20
20
20
20
20
ENDCHAR
STARTCHAR .uni0038
ENCODING 56
SWIDTH 500 0
DWIDTH 6 0
BBX 5 9 0 0
BITMAP
70
88
88
88
70
88
88
88
70
ENDCHAR
STARTCHAR .uni0039
ENCODING 57
SWIDTH 500 0
DWIDTH 6 0
BBX 5 9 0 0
BITMAP
70
88
88
88
78
08
08
88
70
ENDCHAR
STARTCHAR .uni003A
ENCODING 58
SWIDTH 500 0
DWIDTH 6 0
BBX 1 5 2 2
BITMAP
80
00
00
00
80
ENDCHAR
STARTCHAR .uni003B
ENCODING 59
SWIDTH 500 0
DWIDTH 6 0
BBX 3 7 1 0
BITMAP
20
00
00
00
20
40
80
ENDCHAR
STARTCHAR .uni003C
ENCODING 60
SWIDTH 500 0
DWIDTH 6 0
BBX 3 5 1 2
BITMAP
20
40
80
40
20
ENDCHAR
STARTCHAR .uni003D
ENCODING 61
SWIDTH 500 0
DWIDTH 6 0
BBX 5 3 0 3
BITMAP
F8
00
F8
ENDCHAR
STARTCHAR .uni003E
ENCODING 62
SWIDTH 500 0
DWIDTH 6 0
BBX 3 5 1 2
BITMAP
80
40
20
40
80
ENDCHAR
STARTCHAR .uni003F
ENCODING 63
SWIDTH 500 0
DWIDTH 6 0
BBX 5 9 0 0
BITMAP
70
88
88
08
10
20
20
00
20
ENDCHAR
STARTCHAR .uni0040
ENCODING 64
SWIDTH 500 0
DWIDTH 6 0
BBX 5 9 0 0
BITMAP
70
88
88
98
A8
A8
98
80
70
ENDCHAR
STARTCHAR .uni0041
ENCODING 65
SWIDTH 500 0
DWIDTH 6 0
BBX 5 9 0 0
BITMAP
70
88
88
88
F8
88
88
88
88
ENDCHAR
STARTCHAR .uni0042
ENCODING 66
SWIDTH 500 0
DWIDTH 6 0
BBX 5 9 0 0
BITMAP
F0
88
88
88
F0
88
88
88
F0
ENDCHAR
STARTCHAR .uni0043
ENCODING 67
SWIDTH 500 0
DWIDTH 6 0
BBX 5 9 0 0
BITMAP
70
88
80
80
80
80
80
88
70
ENDCHAR
STARTCHAR .uni0044
ENCODING 68
SWIDTH 500 0
DWIDTH 6 0
BBX 5 9 0 0
BITMAP
F0
88
88
88
88
88
88
88
F0
ENDCHAR
STARTCHAR .uni0045
ENCODING 69
SWIDTH 500 0
DWIDTH 6 0
BBX 5 9 0 0
BITMAP
F8
80
80
80
F0
80
80
80
F8
ENDCHAR
STARTCHAR .uni0046
ENCODING 70
SWIDTH 500 0
DWIDTH 6 0
BBX 5 9 0 0
BITMAP
F8
80
80
80
F0
80
80
80
80
ENDCHAR
STARTCHAR .uni0047
ENCODING 71
SWIDTH 500 0
DWIDTH 6 0
BBX 5 9 0 0
BITMAP
70
88
80
80
98
88
88
88
70
ENDCHAR
STARTCHAR .uni0048
ENCODING 72
SWIDTH 500 0
DWIDTH 6 0
BBX 5 9 0 0
BITMAP
88
88
88
88
F8
88
88
88
88
ENDCHAR
STARTCHAR .uni0049
ENCODING 73
SWIDTH 500 0
DWIDTH 6 0
BBX 5 9 0 0
BITMAP
F8
20
20
20
20
20
20
20
F8
ENDCHAR
STARTCHAR .uni004A
ENCODING 74
SWIDTH 500 0
DWIDTH 6 0
BBX 5 9 0 0
BITMAP
08
08
08
08
08
08
08
88
70
ENDCHAR
STARTCHAR .uni004B
ENCODING 75
SWIDTH 500 0
DWIDTH 6 0
BBX 5 9 0 0
BITMAP
88
90
A0
C0
80
C0
A0
90
88
ENDCHAR
STARTCHAR .uni004C
ENCODING 76
SWIDTH 500 0
DWIDTH 6 0
BBX 5 9 0 0
BITMAP
80
80
80
80
80
80
80
80
F8
ENDCHAR
STARTCHAR .uni004D
ENCODING 77
SWIDTH 500 0
DWIDTH 6 0
BBX 5 9 0 0
BITMAP
88
D8
A8
88
88
88
88
88
88
ENDCHAR
STARTCHAR .uni004E
ENCODING 78
SWIDTH 500 0
DWIDTH 6 0
BBX 5 9 0 0
BITMAP
88
C8
A8
98
88
88
88
88
88
ENDCHAR
STARTCHAR .uni004F
ENCODING 79
SWIDTH 500 0
DWIDTH 6 0
BBX 5 9 0 0
BITMAP
70
88
88
88
88
88
88
88
70
ENDCHAR
STARTCHAR .uni0050
ENCODING 80
SWIDTH 500 0
DWIDTH 6 0
BBX 5 9 0 0
BITMAP
F0
88
88
88
F0
80
80
80
80
ENDCHAR
STARTCHAR .uni0051
ENCODING 81
SWIDTH 500 0
DWIDTH 6 0
BBX 5 11 0 -2
BITMAP
70
88
88
88
88
88
88
88
70
08
08
ENDCHAR
STARTCHAR .uni0052
ENCODING 82
SWIDTH 500 0
DWIDTH 6 0
BBX 5 9 0 0
BITMAP
F0
88
88
88
F0
88
88
88
88
ENDCHAR
STARTCHAR .uni0053
ENCODING 83
SWIDTH 500 0
DWIDTH 6 0
BBX 5 9 0 0
BITMAP
70
88
80
80
70
08
08
88
70
ENDCHAR
STARTCHAR .uni0054
ENCODING 84
SWIDTH 500 0
DWIDTH 6 0
BBX 5 9 0 0
BITMAP
F8
20
20
20
20
20
20
20
20
ENDCHAR
STARTCHAR .uni0055
ENCODING 85
SWIDTH 500 0
DWIDTH 6 0
BBX 5 9 0 0
BITMAP
88
88
88
88
88
88
88
88
70
ENDCHAR
STARTCHAR .uni0056
ENCODING 86
SWIDTH 500 0
DWIDTH 6 0
BBX 5 9 0 0
BITMAP
88
88
88
88
88
88
88
50
20
ENDCHAR
STARTCHAR .uni0057
ENCODING 87
SWIDTH 500 0
DWIDTH 6 0
BBX 5 9 0 0
BITMAP
88
88
88
88
88
88
A8
D8
88
ENDCHAR
STARTCHAR .uni0058
ENCODING 88
SWIDTH 500 0
DWIDTH 6 0
BBX 5 9 0 0
BITMAP
88
88
88
50
20
50
88
88
88
ENDCHAR
STARTCHAR .uni0059
ENCODING 89
SWIDTH 500 0
DWIDTH 6 0
BBX 5 9 0 0
BITMAP
88
88
88
50
20
20
20
20
20
ENDCHAR
STARTCHAR .uni005A
ENCODING 90
SWIDTH 500 0
DWIDTH 6 0
BBX 5 9 0 0
BITMAP
F8
08
08
10
20
40
80
80
F8
ENDCHAR
STARTCHAR .uni005B
ENCODING 91
SWIDTH 500 0
DWIDTH 6 0
BBX 3 11 1 -2
BITMAP
E0
80
80
80
80
80
80
80
80
80
E0
ENDCHAR
STARTCHAR .uni005C
ENCODING 92
SWIDTH 500 0
DWIDTH 6 0
BBX 5 5 0 2
BITMAP
80
40
20
10
08
ENDCHAR
STARTCHAR .uni005D
ENCODING 93
SWIDTH 500 0
DWIDTH 6 0
BBX 3 11 1 -2
BITMAP
E0
20
20
20
20
20
20
20
20
20
E0
ENDCHAR
STARTCHAR .uni005E
ENCODING 94
SWIDTH 500 0
DWIDTH 6 0
BBX 5 3 0 6
BITMAP
20
50
88
ENDCHAR
STARTCHAR .uni005F
ENCODING 95
SWIDTH 500 0
DWIDTH 6 0
BBX 5 1 0 0
BITMAP
F8
ENDCHAR
STARTCHAR .uni0060
ENCODING 96
SWIDTH 500 0
DWIDTH 6 0
BBX 3 3 1 6
BITMAP
80
40
20
ENDCHAR
STARTCHAR .uni0061
ENCODING 97
SWIDTH 500 0
DWIDTH 6 0
BBX 5 7 0 0
BITMAP
70
88
08
78
88
88
78
ENDCHAR
STARTCHAR .uni0062
ENCODING 98
SWIDTH 500 0
DWIDTH 6 0
BBX 5 9 0 0
BITMAP
80
80
F0
88
88
88
88
88
F0
ENDCHAR
STARTCHAR .uni0063
ENCODING 99
SWIDTH 500 0
DWIDTH 6 0
BBX 5 7 0 0
BITMAP
70
88
80
80
80
88
70
ENDCHAR
STARTCHAR .uni0064
ENCODING 100
SWIDTH 500 0
DWIDTH 6 0
BBX 5 9 0 0
BITMAP
08
08
78
88
88
88
88
88
78
ENDCHAR
STARTCHAR .uni0065
ENCODING 101
SWIDTH 500 0
DWIDTH 6 0
BBX 5 7 0 0
BITMAP
70
88
88
F8
80
88
70
ENDCHAR
STARTCHAR .uni0066
ENCODING 102
SWIDTH 500 0
DWIDTH 6 0
BBX 5 9 0 0
BITMAP
38
40
F0
40
40
40
40
40
40
ENDCHAR
STARTCHAR .uni0067
ENCODING 103
SWIDTH 500 0
DWIDTH 6 0
BBX 5 9 0 -2
BITMAP
70
88
88
88
88
88
78
08
70
ENDCHAR
STARTCHAR .uni0068
ENCODING 104
SWIDTH 500 0
DWIDTH 6 0
BBX 5 9 0 0
BITMAP
80
80
F0
88
88
88
88
88
88
ENDCHAR
STARTCHAR .uni0069
ENCODING 105
SWIDTH 500 0
DWIDTH 6 0
BBX 5 9 0 0
BITMAP
20
00
E0
20
20
20
20
20
F8
ENDCHAR
STARTCHAR .uni006A
ENCODING 106
SWIDTH 500 0
DWIDTH 6 0
BBX 5 11 0 -2
BITMAP
08
00
38
08
08
08
08
08
08
88
70
ENDCHAR
STARTCHAR .uni006B
ENCODING 107
SWIDTH 500 0
DWIDTH 6 0
BBX 5 9 0 0
BITMAP
80
80
88
90
A0
C0
A0
90
88
ENDCHAR
STARTCHAR .uni006C
ENCODING 108
SWIDTH 500 0
DWIDTH 6 0
BBX 5 9 0 0
BITMAP
E0
20
20
20
20
20
20
20
F8
ENDCHAR
STARTCHAR .uni006D
ENCODING 109
SWIDTH 500 0
DWIDTH 6 0
BBX 5 7 0 0
BITMAP
50
A8
A8
A8
A8
A8
A8
ENDCHAR
STARTCHAR .uni006E
ENCODING 110
SWIDTH 500 0
DWIDTH 6 0
BBX 5 7 0 0
BITMAP
F0
88
88
88
88
88
88
ENDCHAR
STARTCHAR .uni006F
ENCODING 111
SWIDTH 500 0
DWIDTH 6 0
BBX 5 7 0 0
BITMAP
70
88
88
88
88
88
70
ENDCHAR
STARTCHAR .uni0070
ENCODING 112
SWIDTH 500 0
DWIDTH 6 0
BBX 5 9 0 -2
BITMAP
F0
88
88
88
88
88
F0
80
80
ENDCHAR
STARTCHAR .uni0071
ENCODING 113
SWIDTH 500 0
DWIDTH 6 0
BBX 5 9 0 -2
BITMAP
78
88
88
88
88
88
78
08
08
ENDCHAR
STARTCHAR .uni0072
ENCODING 114
SWIDTH 500 0
DWIDTH 6 0
BBX 5 7 0 0
BITMAP
F0
88
80
80
80
80
80
ENDCHAR
STARTCHAR .uni0073
ENCODING 115
SWIDTH 500 0
DWIDTH 6 0
BBX 5 7 0 0
BITMAP
70
88
80
70
08
88
70
ENDCHAR
STARTCHAR .uni0074
ENCODING 116
SWIDTH 500 0
DWIDTH 6 0
BBX 5 9 0 0
BITMAP
20
20
F8
20
20
20
20
20
20
ENDCHAR
STARTCHAR .uni0075
ENCODING 117
SWIDTH 500 0
DWIDTH 6 0
BBX 5 7 0 0
BITMAP
88
88
88
88
88
88
70
ENDCHAR
STARTCHAR .uni0076
ENCODING 118
SWIDTH 500 0
DWIDTH 6 0
BBX 5 7 0 0
BITMAP
88
88
88
88
88
50
20
ENDCHAR
STARTCHAR .uni0077
ENCODING 119
SWIDTH 500 0
DWIDTH 6 0
BBX 5 7 0 0
BITMAP
A8
A8
A8
A8
A8
A8
50
ENDCHAR
STARTCHAR .uni0078
ENCODING 120
SWIDTH 500 0
DWIDTH 6 0
BBX 5 7 0 0
BITMAP
88
88
50
20
50
88
88
ENDCHAR
STARTCHAR .uni0079
ENCODING 121
SWIDTH 500 0
DWIDTH 6 0
BBX 5 9 0 -2
BITMAP
88
88
88
88
88
88
78
08
70
ENDCHAR
STARTCHAR .uni007A
ENCODING 122
SWIDTH 500 0
DWIDTH 6 0
BBX 5 7 0 0
BITMAP
F8
08
10
20
40
80
F8
ENDCHAR
STARTCHAR .uni007B
ENCODING 123
SWIDTH 500 0
DWIDTH 6 0
BBX 3 11 1 -2
BITMAP
20
40
40
40
40
80
40
40
40
40
20
ENDCHAR
STARTCHAR .uni007C
ENCODING 124
SWIDTH 500 0
DWIDTH 6 0
BBX 1 11 2 -2
BITMAP
80
80
80
80
80
80
80
80
80
80
80
ENDCHAR
STARTCHAR .uni007D
ENCODING 125
SWIDTH 500 0
DWIDTH 6 0
BBX 3 11 1 -2
BITMAP
80
40
40
40
40
20
40
40
40
40
80
ENDCHAR
STARTCHAR .uni007E
ENCODING 126
SWIDTH 500 0
DWIDTH 6 0
BBX 5 3 0 6
BITMAP
40
A8
10
ENDCHAR
STARTCHAR .uni00AC
ENCODING 172
SWIDTH 500 0
DWIDTH 6 0
BBX 5 3 0 6
BITMAP
F8
08
08
ENDCHAR
STARTCHAR .uni00B7
ENCODING 183
SWIDTH 500 0
DWIDTH 6 0
BBX 1 1 2 4
BITMAP
80
ENDCHAR
STARTCHAR .uni00D7
ENCODING 215
SWIDTH 500 0
DWIDTH 6 0
BBX 5 5 0 2
BITMAP
88
50
20
50
88
ENDCHAR
STARTCHAR .uni0393
ENCODING 915
SWIDTH 500 0
DWIDTH 6 0
BBX 5 9 0 0
BITMAP
F8
80
80
80
80
80
80
80
80
ENDCHAR
STARTCHAR .uni0394
ENCODING 916
SWIDTH 1000 0
DWIDTH 12 0
BBX 9 9 1 0
BITMAP
0800
0800
1400
1400
2200
2200
4100
4100
FF80
ENDCHAR
STARTCHAR .uni039B
ENCODING 923
SWIDTH 1000 0
DWIDTH 12 0
BBX 9 9 1 0
BITMAP
0800
0800
1400
1400
2200
2200
4100
4100
C180
ENDCHAR
STARTCHAR .uni03A0
ENCODING 928
SWIDTH 500 0
DWIDTH 6 0
BBX 5 9 0 0
BITMAP
F8
88
88
88
88
88
88
88
88
ENDCHAR
STARTCHAR .uni03A3
ENCODING 931
SWIDTH 500 0
DWIDTH 6 0
BBX 5 9 0 0
BITMAP
F8
80
40
20
10
20
40
80
F8
ENDCHAR
STARTCHAR .uni03B1
ENCODING 945
SWIDTH 500 0
DWIDTH 6 0
BBX 5 7 0 0
BITMAP
68
90
90
90
90
90
68
ENDCHAR
STARTCHAR .uni03B2
ENCODING 946
SWIDTH 500 0
DWIDTH 6 0
BBX 5 11 0 -2
BITMAP
F0
88
88
F0
88
88
88
88
F0
80
80
ENDCHAR
STARTCHAR .uni03B3
ENCODING 947
SWIDTH 500 0
DWIDTH 6 0
BBX 5 9 0 -2
BITMAP
88
88
88
48
28
10
20
40
80
ENDCHAR
STARTCHAR .uni03B4
ENCODING 948
SWIDTH 500 0
DWIDTH 6 0
BBX 5 9 0 0
BITMAP
78
80
70
88
88
88
88
88
70
ENDCHAR
STARTCHAR .uni03B5
ENCODING 949
SWIDTH 500 0
DWIDTH 6 0
BBX 5 7 0 0
BITMAP
78
80
80
70
80
80
78
ENDCHAR
STARTCHAR .uni03B8
ENCODING 952
SWIDTH 500 0
DWIDTH 6 0
BBX 5 9 0 0
BITMAP
70
88
88
88
F8
88
88
88
70
ENDCHAR
STARTCHAR .uni03BB
ENCODING 955
SWIDTH 500 0
DWIDTH 6 0
BBX 5 9 0 0
BITMAP
80
80
80
40
20
50
88
88
88
ENDCHAR
STARTCHAR .uni03BC
ENCODING 956
SWIDTH 500 0
DWIDTH 6 0
BBX 5 9 0 -2
BITMAP
88
88
88
88
88
88
F0
80
80
ENDCHAR
STARTCHAR .uni03BD
ENCODING 957
SWIDTH 500 0
DWIDTH 6 0
BBX 5 7 0 0
BITMAP
88
88
88
88
90
A0
C0
ENDCHAR
STARTCHAR .uni03C0
ENCODING 960
SWIDTH 500 0
DWIDTH 6 0
BBX 5 7 0 0
BITMAP
F8
50
50
50
50
50
50
ENDCHAR
STARTCHAR .uni03C3
ENCODING 963
SWIDTH 500 0
DWIDTH 6 0
BBX 5 7 0 0
BITMAP
78
90
90
90
90
90
60
ENDCHAR
STARTCHAR .uni03C4
ENCODING 964
SWIDTH 500 0
DWIDTH 6 0
BBX 5 7 0 0
BITMAP
F8
20
20
20
20
20
20
ENDCHAR
STARTCHAR .uni03C6
ENCODING 966
SWIDTH 500 0
DWIDTH 6 0
BBX 5 9 0 0
BITMAP
10
A8
A8
A8
70
20
20
20
20
ENDCHAR
STARTCHAR .uni03C7
ENCODING 967
SWIDTH 500 0
DWIDTH 6 0
BBX 5 9 0 0
BITMAP
08
08
88
50
20
50
88
80
80
ENDCHAR
STARTCHAR .uni03C8
ENCODING 968
SWIDTH 500 0
DWIDTH 6 0
BBX 5 9 0 0
BITMAP
A8
A8
A8
A8
70
20
20
20
20
ENDCHAR
STARTCHAR .uni201C
ENCODING 8220
SWIDTH 500 0
DWIDTH 6 0
BBX 5 3 0 6
BITMAP
A0
50
28
ENDCHAR
STARTCHAR .uni201D
ENCODING 8221
SWIDTH 500 0
DWIDTH 6 0
BBX 5 3 0 6
BITMAP
28
50
A0
ENDCHAR
STARTCHAR .uni2102
ENCODING 8450
SWIDTH 500 0
DWIDTH 6 0
BBX 5 9 0 0
BITMAP
70
C8
C0
C0
C0
C0
C0
C8
70
ENDCHAR
STARTCHAR .uni2115
ENCODING 8469
SWIDTH 500 0
DWIDTH 6 0
BBX 5 9 0 0
BITMAP
88
C8
E8
F8
B8
98
88
88
88
ENDCHAR
STARTCHAR .uni211A
ENCODING 8474
SWIDTH 500 0
DWIDTH 6 0
BBX 5 11 0 -2
BITMAP
70
C8
C8
C8
C8
C8
C8
C8
70
08
08
ENDCHAR
STARTCHAR .uni211D
ENCODING 8477
SWIDTH 500 0
DWIDTH 6 0
BBX 5 9 0 0
BITMAP
F0
C8
C8
C8
F0
C8
C8
C8
C8
ENDCHAR
STARTCHAR .uni2124
ENCODING 8484
SWIDTH 500 0
DWIDTH 6 0
BBX 5 9 0 0
BITMAP
F8
08
18
38
70
E0
C0
80
F8
ENDCHAR
STARTCHAR .uni2190
ENCODING 8592
SWIDTH 500 0
DWIDTH 6 0
BBX 5 3 0 3
BITMAP
40
B8
40
ENDCHAR
STARTCHAR .uni2192
ENCODING 8594
SWIDTH 500 0
DWIDTH 6 0
BBX 5 3 0 3
BITMAP
10
E8
10
ENDCHAR
STARTCHAR .uni2194
ENCODING 8596
SWIDTH 500 0
DWIDTH 6 0
BBX 5 3 0 3
BITMAP
50
A8
50
ENDCHAR
STARTCHAR .uni2200
ENCODING 8704
SWIDTH 1000 0
DWIDTH 12 0
BBX 9 9 1 0
BITMAP
C180
4100
4100
2200
3E00
1400
1400
0800
0800
ENDCHAR
STARTCHAR .uni2202
ENCODING 8706
SWIDTH 500 0
DWIDTH 6 0
BBX 5 9 0 0
BITMAP
C0
20
10
08
78
88
88
88
70
ENDCHAR
STARTCHAR .uni2203
ENCODING 8707
SWIDTH 500 0
DWIDTH 6 0
BBX 5 9 0 0
BITMAP
F8
08
08
08
78
08
08
08
F8
ENDCHAR
STARTCHAR .uni2205
ENCODING 8709
SWIDTH 1000 0
DWIDTH 12 0
BBX 9 9 1 0
BITMAP
1C80
2300
4300
4500
4900
5100
6100
6200
9C00
ENDCHAR
STARTCHAR .uni2208
ENCODING 8712
SWIDTH 500 0
DWIDTH 6 0
BBX 5 7 0 1
BITMAP
38
40
80
F0
80
40
38
ENDCHAR
STARTCHAR .uni2209
ENCODING 8713
SWIDTH 500 0
DWIDTH 6 0
BBX 5 9 0 0
BITMAP
20
38
60
A0
F0
A0
60
38
20
ENDCHAR
STARTCHAR .uni2218
ENCODING 8728
SWIDTH 500 0
DWIDTH 6 0
BBX 3 3 1 3
BITMAP
40
A0
40
ENDCHAR
STARTCHAR .uni221E
ENCODING 8734
SWIDTH 500 0
DWIDTH 6 0
BBX 5 3 0 3
BITMAP
50
A8
50
ENDCHAR
STARTCHAR .uni2227
ENCODING 8743
SWIDTH 500 0
DWIDTH 6 0
BBX 5 3 0 3
BITMAP
20
50
88
ENDCHAR
STARTCHAR .uni2228
ENCODING 8744
SWIDTH 500 0
DWIDTH 6 0
BBX 5 3 0 3
BITMAP
88
50
20
ENDCHAR
STARTCHAR .uni2229
ENCODING 8745
SWIDTH 500 0
DWIDTH 6 0
BBX 5 9 0 0
BITMAP
70
88
88
88
88
88
88
88
88
ENDCHAR
STARTCHAR .uni222A
ENCODING 8746
SWIDTH 500 0
DWIDTH 6 0
BBX 5 9 0 0
BITMAP
88
88
88
88
88
88
88
88
70
ENDCHAR
STARTCHAR .uni2260
ENCODING 8800
SWIDTH 500 0
DWIDTH 6 0
BBX 5 5 0 2
BITMAP
20
F8
20
F8
20
ENDCHAR
STARTCHAR .uni2261
ENCODING 8801
SWIDTH 500 0
DWIDTH 6 0
BBX 5 5 0 2
BITMAP
F8
00
F8
00
F8
ENDCHAR
STARTCHAR .uni2264
ENCODING 8804
SWIDTH 500 0
DWIDTH 6 0
BBX 3 7 1 0
BITMAP
20
40
80
40
20
00
E0
ENDCHAR
STARTCHAR .uni2265
ENCODING 8805
SWIDTH 500 0
DWIDTH 6 0
BBX 3 7 1 0
BITMAP
80
40
20
40
80
00
E0
ENDCHAR
STARTCHAR .uni2282
ENCODING 8834
SWIDTH 500 0
DWIDTH 6 0
BBX 5 7 0 1
BITMAP
38
40
80
80
80
40
38
ENDCHAR
STARTCHAR .uni2286
ENCODING 8838
SWIDTH 500 0
DWIDTH 6 0
BBX 5 9 0 -1
BITMAP
38
40
80
80
80
40
38
00
78
ENDCHAR
STARTCHAR .uni22C2
ENCODING 8898
SWIDTH 500 0
DWIDTH 6 0
BBX 5 11 0 -2
BITMAP
70
88
88
88
88
88
88
88
88
88
88
ENDCHAR
STARTCHAR .uni22C3
ENCODING 8899
SWIDTH 500 0
DWIDTH 6 0
BBX 5 11 0 -2
BITMAP
88
88
88
88
88
88
88
88
88
88
70
ENDCHAR
STARTCHAR .uni27E8
ENCODING 10216
SWIDTH 500 0
DWIDTH 6 0
BBX 5 11 0 -2
BITMAP
08
10
20
40
80
80
80
40
20
10
08
ENDCHAR
STARTCHAR .uni27E9
ENCODING 10217
SWIDTH 500 0
DWIDTH 6 0
BBX 5 11 0 -2
BITMAP
80
40
20
10
08
08
08
10
20
40
80
ENDCHAR
ENDFONT
